<?xml version="1.0" standalone="no"?>
<!DOCTYPE svg PUBLIC "-//W3C//DTD SVG 20010904//EN"
 "http://www.w3.org/TR/2001/REC-SVG-20010904/DTD/svg10.dtd">
<svg version="1.0" xmlns="http://www.w3.org/2000/svg"
 width="630.000000pt" height="630.000000pt" viewBox="0 0 630.000000 630.000000"
 preserveAspectRatio="xMidYMid meet">
<metadata>
Created by potrace 1.11, written by Peter Selinger 2001-2013
</metadata>
<g transform="translate(0.000000,630.000000) scale(0.100000,-0.100000)"
fill="#000000" stroke="none">
<path d="M0 3150 l0 -3150 3150 0 3150 0 0 3150 0 3150 -3150 0 -3150 0 0
-3150z m3099 2524 c69 -30 165 -123 200 -193 29 -57 53 -172 50 -241 l-3 -55
45 3 c24 2 51 5 60 8 8 2 26 -7 38 -20 37 -39 145 -477 296 -1196 31 -146 71
-334 90 -417 19 -84 35 -157 35 -162 0 -9 -79 -25 -187 -36 l-61 -7 -6 29 c-3
15 -12 78 -21 138 -41 271 -120 609 -236 1005 -85 287 -122 403 -161 498 -35
84 -50 90 -116 42 -51 -37 -55 -47 -7 -19 44 26 59 21 84 -30 45 -87 171 -483
240 -751 84 -327 165 -797 153 -882 l-5 -31 -186 6 c-334 11 -536 64 -621 164
l-32 38 23 -44 c49 -89 132 -141 324 -200 262 -80 495 -89 828 -32 109 19 251
75 323 128 17 13 34 23 38 23 10 0 140 -271 209 -437 31 -72 85 -229 121 -349
110 -369 116 -394 123 -551 l6 -141 -69 -22 c-195 -60 -580 -116 -866 -126
-157 -6 -204 -3 -333 15 -402 58 -654 112 -864 186 -96 33 -221 90 -221 99 0
2 21 35 46 73 25 37 72 122 104 188 127 258 145 371 120 735 -12 166 -20 215
-61 393 -32 135 -51 185 -120 306 l-43 75 35 -20 c19 -12 56 -33 83 -48 l48
-28 -7 153 c-9 214 -33 463 -56 599 -34 192 -34 180 0 231 28 42 43 52 144 97
61 27 171 73 242 101 l130 52 45 65 c44 63 77 84 133 84 20 0 21 6 5 51 -32
95 -100 149 -186 149 -64 0 -113 -18 -215 -78 -112 -65 -167 -90 -240 -107
-64 -15 -229 -20 -286 -9 -29 6 -141 96 -141 113 0 4 25 15 55 26 30 10 70 28
88 39 l32 20 -55 7 c-30 4 -85 7 -123 8 l-68 1 -65 61 c-36 33 -81 67 -101 76
-50 21 -150 18 -214 -6 l-54 -20 60 55 c72 66 176 118 268 135 88 16 169 2
297 -53 163 -69 279 -82 389 -43 66 23 192 20 244 -6 l42 -21 -39 41 c-22 22
-55 46 -74 52 -38 13 -33 23 18 38 57 17 162 6 229 -25z m654 -580 c63 -9 117
-60 117 -110 0 -49 63 -289 232 -879 106 -373 142 -536 124 -560 -26 -33 -199
-123 -267 -139 -26 -6 -27 -4 -42 62 -103 464 -255 1185 -287 1367 -23 127
-44 238 -47 248 -4 15 4 17 60 17 35 0 85 -3 110 -6z m950 -18 c33 -31 60 -84
87 -174 12 -40 24 -72 25 -70 9 8 -18 104 -45 164 -16 37 -28 69 -26 71 9 10
44 -9 75 -39 206 -202 280 -688 165 -1085 l-25 -86 31 -32 c16 -17 30 -35 30
-40 0 -9 -99 -264 -107 -274 -1 -2 -14 4 -28 13 -19 13 -26 14 -29 4 -2 -7
-16 -53 -31 -102 -33 -111 -99 -261 -166 -378 l-52 -90 -57 144 c-31 78 -76
182 -99 230 -44 91 -74 169 -68 175 2 1 43 -44 90 -102 48 -58 91 -105 96
-105 30 0 -173 368 -270 490 l-20 26 36 77 c20 42 47 119 62 171 l26 93 36 -9
c20 -6 110 -43 201 -84 91 -41 158 -68 150 -60 -12 11 -189 119 -318 193 -10
7 -9 21 7 73 48 156 53 328 13 445 -19 56 -20 61 -4 79 13 14 27 17 60 13 54
-6 77 -27 91 -83 8 -32 16 -44 29 -44 30 0 73 -56 93 -119 7 -24 7 -24 8 8 1
44 -35 107 -70 121 -15 7 -30 22 -33 36 -8 29 -63 94 -81 94 -20 0 -26 15 -41
94 -17 86 -18 162 -3 172 31 19 102 -83 134 -191 l14 -50 -5 50 c-3 30 -20 76
-40 114 -27 49 -32 66 -23 77 17 21 53 17 82 -10z m-3052 -108 c4 -23 8 -76 9
-117 0 -67 -2 -75 -25 -93 -28 -22 -65 -87 -65 -114 0 -9 -11 -25 -25 -36 -27
-21 -49 -81 -43 -118 3 -20 7 -13 21 31 16 54 42 89 65 89 7 0 12 16 12 40 0
57 17 87 62 105 33 13 42 13 65 1 27 -13 27 -14 24 -122 -2 -129 18 -222 73
-334 20 -40 36 -80 36 -89 0 -31 -49 -120 -92 -167 -24 -26 -83 -80 -131 -122
-89 -75 -111 -108 -39 -58 41 28 175 162 253 254 l46 53 51 -69 c60 -81 154
-171 243 -233 80 -55 94 -89 85 -199 -4 -41 -9 -88 -12 -105 -10 -57 24 2 37
63 11 55 7 197 -7 255 -4 18 -2 27 6 27 13 0 159 -298 209 -425 72 -185 95
-346 89 -622 -5 -196 -19 -275 -67 -384 l-20 -44 0 80 c-2 123 -35 223 -99
301 -37 44 -128 117 -252 204 -126 87 -217 160 -285 227 l-51 50 -59 -54 c-33
-29 -65 -53 -71 -53 -30 0 -274 409 -274 459 0 9 9 31 21 50 l20 33 -55 112
c-157 315 -197 661 -110 936 32 103 106 211 129 189 3 -3 -1 -38 -10 -78 -8
-40 -14 -91 -14 -114 1 -35 3 -31 10 23 19 145 54 220 102 220 46 0 50 -12 28
-78 -12 -34 -20 -83 -20 -109 l1 -48 9 60 c12 80 27 124 56 163 23 30 27 32
40 19 9 -8 19 -35 24 -59z m974 -3082 c332 -62 703 -96 1111 -103 367 -6 624
5 802 36 57 9 105 15 106 12 22 -38 96 -328 96 -377 0 -10 -41 -1 -127 26
-110 35 -170 38 -279 10 -80 -20 -208 -69 -201 -77 3 -2 50 8 105 22 107 27
206 33 218 13 10 -15 6 -107 -7 -182 -26 -146 -116 -324 -208 -411 l-43 -40 7
-72 7 -73 -57 0 c-64 0 -134 16 -273 62 -96 31 -212 99 -263 155 -26 28 -27
29 -19 118 5 50 9 120 9 158 l1 67 -94 0 -95 0 -203 -163 c-287 -229 -476
-370 -525 -390 -52 -20 -325 -76 -415 -84 -55 -5 -68 -3 -68 8 0 8 9 20 21 27
28 18 40 51 94 253 26 96 66 235 90 309 l45 135 122 1 c79 0 146 6 188 17 36
9 119 28 185 43 66 14 172 41 235 59 63 19 131 36 150 38 19 3 -3 3 -50 2 -53
-2 -166 -21 -300 -50 -361 -78 -398 -83 -498 -74 -163 15 -320 63 -335 102 -3
8 27 59 67 114 39 56 107 156 151 223 67 102 82 120 100 116 11 -4 79 -17 150
-30z"/>
<path d="M2637 4774 c-40 -21 -45 -46 -31 -133 18 -115 33 -161 50 -161 12 0
14 7 9 29 -16 76 -9 129 28 199 20 39 33 72 30 76 -11 11 -57 6 -86 -10z"/>
<path d="M2706 4420 c-7 -19 7 -75 20 -75 15 0 16 49 0 70 -12 17 -16 17 -20
5z"/>
<path d="M2660 4300 c0 -27 5 -50 10 -50 6 0 10 23 10 50 0 28 -4 50 -10 50
-5 0 -10 -22 -10 -50z"/>
<path d="M3205 4277 c-44 -18 -103 -43 -131 -56 l-50 -22 9 -62 c6 -34 11 -64
13 -65 2 -4 306 58 311 62 6 5 -54 170 -63 173 -5 1 -45 -12 -89 -30z"/>
<path d="M3702 3144 c-22 -44 -47 -86 -56 -93 -9 -8 -16 -16 -16 -20 0 -3 51
-6 114 -6 114 0 115 0 97 20 -28 31 -72 104 -86 144 l-12 36 -41 -81z"/>
<path d="M3275 2904 c30 -47 63 -96 71 -110 l16 -24 28 42 c15 24 37 52 48 62
12 11 22 25 22 31 0 16 -185 85 -228 85 -6 0 13 -39 43 -86z"/>
<path d="M4215 2944 c-33 -7 -77 -13 -97 -14 -20 0 -40 -4 -43 -10 -3 -5 -2
-10 3 -10 14 0 73 -88 93 -139 14 -38 19 -43 25 -26 30 83 70 171 86 187 32
32 27 34 -67 12z"/>
<path d="M3710 2939 c-122 -20 -251 -115 -278 -207 -37 -124 16 -299 117 -390
94 -84 269 -105 388 -47 64 32 107 79 147 165 29 60 31 73 31 170 0 89 -3 111
-22 146 -44 83 -135 147 -225 159 -88 12 -104 12 -158 4z"/>
<path d="M4190 2563 c0 -27 -4 -65 -9 -86 -5 -21 -6 -36 -3 -34 4 1 49 23 101
48 l94 46 -54 17 c-30 10 -69 26 -87 37 -18 10 -35 19 -38 19 -2 0 -4 -21 -4
-47z"/>
<path d="M3250 2551 c-25 -26 -71 -69 -103 -96 l-59 -50 94 7 c51 3 117 7 147
7 47 1 52 3 46 19 -5 9 -18 50 -29 89 -14 50 -26 73 -36 72 -8 0 -35 -22 -60
-48z"/>
<path d="M3998 2257 c-52 -32 -64 -44 -56 -54 6 -7 15 -13 20 -13 6 0 55 -21
109 -47 55 -25 101 -44 103 -42 8 8 -87 199 -98 198 -6 0 -41 -19 -78 -42z"/>
<path d="M3467 2273 c-4 -5 0 -34 8 -64 8 -30 15 -78 15 -106 0 -29 2 -53 4
-53 2 0 45 23 95 51 l92 51 -56 23 c-59 25 -73 33 -121 78 -18 16 -34 25 -37
20z"/>
<path d="M3776 4351 c-3 -5 2 -43 12 -85 l17 -76 56 0 c31 0 70 3 86 6 30 6
30 7 21 47 -5 23 -13 59 -19 80 l-10 37 -79 0 c-43 0 -81 -4 -84 -9z"/>
</g>
</svg>
